<?xml version="1.0" encoding="UTF-8" standalone="no"?>
<!DOCTYPE svg PUBLIC "-//W3C//DTD SVG 1.1//EN"
 "http://www.w3.org/Graphics/SVG/1.1/DTD/svg11.dtd">
<!-- Generated by graphviz version 8.0.5 (0)
 -->
<!-- Pages: 1 -->
<svg width="242pt" height="188pt"
 viewBox="0.00 0.00 241.74 188.00" xmlns="http://www.w3.org/2000/svg" xmlns:xlink="http://www.w3.org/1999/xlink">
<g id="graph0" class="graph" transform="scale(1 1) rotate(0) translate(4 184)">
<polygon fill="white" stroke="none" points="-4,4 -4,-184 237.74,-184 237.74,4 -4,4"/>
<!-- a -->
<g id="node1" class="node">
<title>a</title>
<ellipse fill="none" stroke="black" cx="89.69" cy="-162" rx="36.48" ry="18"/>
<text text-anchor="middle" x="89.69" y="-157.32" font-family="Times,serif" font-size="14.00">Едно</text>
</g>
<!-- b -->
<g id="node2" class="node">
<title>b</title>
<ellipse fill="none" stroke="black" cx="30.69" cy="-90" rx="30.69" ry="18"/>
<text text-anchor="middle" x="30.69" y="-85.33" font-family="Times,serif" font-size="14.00">Две</text>
</g>
<!-- a&#45;&gt;b -->
<g id="edge1" class="edge">
<title>a&#45;&gt;b</title>
<path fill="none" stroke="black" d="M76.3,-145.12C68.73,-136.13 59.11,-124.72 50.66,-114.7"/>
<polygon fill="black" stroke="black" points="52.74,-112.73 43.62,-107.34 47.39,-117.24 52.74,-112.73"/>
</g>
<!-- c -->
<g id="node3" class="node">
<title>c</title>
<ellipse fill="none" stroke="black" cx="59.69" cy="-18" rx="30.16" ry="18"/>
<text text-anchor="middle" x="59.69" y="-13.32" font-family="Times,serif" font-size="14.00">Три</text>
</g>
<!-- a&#45;&gt;c -->
<g id="edge2" class="edge">
<title>a&#45;&gt;c</title>
<path fill="none" stroke="black" d="M86.07,-143.87C80.98,-119.78 71.65,-75.6 65.56,-46.77"/>
<polygon fill="black" stroke="black" points="68.81,-46.25 63.32,-37.19 61.96,-47.7 68.81,-46.25"/>
</g>
<!-- d -->
<g id="node4" class="node">
<title>d</title>
<ellipse fill="none" stroke="black" cx="175.69" cy="-90" rx="58.05" ry="18"/>
<text text-anchor="middle" x="175.69" y="-85.33" font-family="Times,serif" font-size="14.00">Кокошки</text>
</g>
<!-- a&#45;&gt;d -->
<g id="edge3" class="edge">
<title>a&#45;&gt;d</title>
<path fill="none" stroke="black" d="M107.93,-146.15C119.41,-136.81 134.48,-124.54 147.48,-113.96"/>
<polygon fill="black" stroke="black" points="149.13,-116.32 154.68,-107.29 144.71,-110.89 149.13,-116.32"/>
</g>
<!-- b&#45;&gt;c -->
<g id="edge4" class="edge">
<title>b&#45;&gt;c</title>
<path fill="none" stroke="black" d="M37.71,-72.05C40.99,-64.14 44.97,-54.54 48.63,-45.69"/>
<polygon fill="black" stroke="black" points="52.14,-47.37 52.73,-36.79 45.67,-44.69 52.14,-47.37"/>
</g>
</g>
</svg>
